<?xml version="1.0" encoding="UTF-8"?>
<svg version="1.1" xmlns="http://www.w3.org/2000/svg" width="512" height="512">
<path d="M0 0 C1.89007278 -0.01029488 1.89007278 -0.01029488 3.81832886 -0.02079773 C7.24200309 -0.0385856 10.66541903 -0.0375883 14.08912539 -0.03185534 C16.96160405 -0.02874265 19.83403456 -0.03487882 22.70650631 -0.04089409 C29.48976323 -0.05489035 36.27289407 -0.05341894 43.05615234 -0.04199219 C50.02326502 -0.03051412 56.98999259 -0.04459234 63.95705456 -0.07138866 C69.96848181 -0.09363245 75.97978895 -0.10016367 81.99125439 -0.09431225 C85.56861391 -0.0909623 89.14572669 -0.09322553 92.72305107 -0.11056328 C96.71665248 -0.12907795 100.70951716 -0.11475673 104.703125 -0.09765625 C105.86764694 -0.10732422 107.03216888 -0.11699219 108.23197937 -0.12695312 C132.62285474 0.09054016 147.43320639 16.77157252 163.55297852 32.80249023 C164.18599192 33.43142811 164.81900532 34.06036598 165.47120094 34.70836258 C168.81494026 38.03141086 172.15551411 41.357605 175.49365234 44.6862793 C178.91436853 48.09590181 182.34661821 51.4936678 185.78152752 54.88898277 C188.44873204 57.52990622 191.10688224 60.17980771 193.76276588 62.83211136 C195.02351017 64.08802798 196.28759068 65.34060588 197.55524254 66.58955002 C208.76937022 77.6482425 220.47051712 90.62619625 221.05048084 107.25169373 C221.05989146 108.84860075 221.06378787 110.44554576 221.06343079 112.04248047 C221.06710747 112.92356224 221.07078416 113.80464401 221.07457227 114.71242523 C221.08560311 117.6708382 221.08945198 120.62921603 221.09326172 123.58764648 C221.09952694 125.70667126 221.1061738 127.82569493 221.11317444 129.94471741 C221.13421445 136.9103214 221.14457842 143.87592561 221.15454102 150.84155273 C221.15858893 153.24096691 221.16270586 155.64038098 221.1668911 158.03979492 C221.18594452 169.31546377 221.20017389 180.59112608 221.20850307 191.86680794 C221.2182692 204.87252131 221.24457194 217.87806421 221.28500396 230.88371754 C221.3151962 240.94165343 221.329975 250.99954055 221.33328408 261.05752087 C221.33563147 267.06177013 221.34455141 273.06583729 221.36974525 279.07003784 C221.39308446 284.72372067 221.39723556 290.37710227 221.38698387 296.03082085 C221.38648979 298.09954266 221.3927724 300.16827959 221.40653992 302.23695564 C221.52269255 320.73326958 218.26874279 335.23585268 205.31469727 349.23217773 C198.4145257 355.48054156 190.00067149 360.25715074 180.91625977 362.40405273 C180.20716744 362.57590466 179.49807512 362.74775658 178.76749516 362.92481613 C175.26507315 363.5135044 171.83618138 363.54884597 168.29649353 363.54449463 C167.15734909 363.54895131 167.15734909 363.54895131 165.99519163 363.55349803 C163.45446548 363.56215849 160.9137866 363.56369105 158.37304688 363.56518555 C156.54943746 363.56981571 154.72582901 363.57484064 152.90222168 363.58023071 C147.94939101 363.59334025 142.99657389 363.59979721 138.04372859 363.60424137 C134.94618406 363.60717529 131.84864321 363.61128077 128.75110054 363.61574554 C119.05054426 363.62941856 109.34999642 363.63908538 99.64943117 363.64294744 C88.4690578 363.64742356 77.28880698 363.66495162 66.10847086 363.69394803 C57.45602226 363.71560544 48.80360804 363.72565393 40.15113264 363.72698855 C34.98865104 363.72803395 29.82628466 363.73388489 24.66383171 363.75180817 C19.80221189 363.76835842 14.94079302 363.77041075 10.07915497 363.76166916 C8.3023099 363.76090241 6.52545371 363.76519325 4.74863625 363.77512741 C-13.53612295 363.87129785 -28.07668378 360.82145386 -41.79467773 347.82202148 C-53.33033554 335.63674473 -57.40582581 321.63286815 -57.34443665 305.19023132 C-57.34826219 304.0925327 -57.35208774 302.99483409 -57.35602921 301.86387187 C-57.36631053 298.20233007 -57.36237627 294.54094651 -57.35839844 290.87939453 C-57.36274762 288.24731938 -57.36786739 285.61525565 -57.37388611 282.98318481 C-57.38660654 276.58551448 -57.38843009 270.18788617 -57.38608585 263.79020532 C-57.3842994 258.58695213 -57.38605931 253.38371165 -57.39031029 248.18045998 C-57.39090548 247.43857189 -57.39150067 246.6966838 -57.39211389 245.93231425 C-57.3933257 244.42492383 -57.39453984 242.91753341 -57.39575627 241.410143 C-57.40662176 227.28749957 -57.40447412 213.16488005 -57.39837142 199.04223529 C-57.39320421 186.14046402 -57.40445429 173.23876829 -57.42346964 160.33701196 C-57.44287203 147.07031636 -57.45109977 133.80365646 -57.44734639 120.53694659 C-57.44543785 113.09641554 -57.44788788 105.65594875 -57.46206093 98.21542931 C-57.47400642 91.88051098 -57.47534433 85.54569649 -57.46327076 79.21077665 C-57.45740392 75.98289993 -57.45786559 72.75525085 -57.46827316 69.52737999 C-57.47877045 66.01768787 -57.47061547 62.50849953 -57.45796204 58.99882507 C-57.46533632 57.99325316 -57.47271061 56.98768124 -57.48030835 55.95163745 C-57.36637983 40.84806509 -52.36095471 26.48998934 -41.89624023 15.46655273 C-29.45927295 3.91429448 -16.70001921 -0.0644446 0 0 Z " fill="#FEFEFE" transform="translate(259.083740234375,31.595947265625)"/>
<path d="M0 0 C1.37634865 -0.00021904 1.37634865 -0.00021904 2.78050232 -0.0004425 C5.8051085 0.00025264 8.82965266 0.00802642 11.85424805 0.01586914 C13.95460476 0.01773473 16.05496191 0.01915797 18.15531921 0.02015686 C23.6774313 0.0239709 29.19951698 0.03379171 34.72161865 0.04486084 C40.35892378 0.05509887 45.99623318 0.05965961 51.63354492 0.06469727 C62.69019713 0.07541496 73.74682977 0.09247804 84.8034668 0.11352539 C84.80585515 1.28836707 84.8082435 2.46320875 84.81070423 3.6736517 C84.86818989 31.6256615 84.94100908 59.57759927 85.03245308 87.52951923 C85.04371987 90.97752418 85.05485855 94.42552953 85.06591797 97.87353516 C85.06922349 98.90309426 85.06922349 98.90309426 85.0725958 99.95345253 C85.10787055 111.03528236 85.13278993 122.11711213 85.15381382 133.19897711 C85.17565447 144.58850229 85.20900112 155.9779414 85.25216836 167.36740834 C85.2760266 173.75690297 85.29480379 180.14631814 85.3010807 186.53585625 C85.3071651 192.56131749 85.3272853 198.58657559 85.35774231 204.61196136 C85.36646903 206.81239723 85.37025638 209.0128597 85.36847496 211.21331215 C85.35994646 226.62166281 85.56414066 242.51663362 91.9284668 256.86352539 C92.37198486 257.90138184 92.37198486 257.90138184 92.82446289 258.96020508 C96.43974851 267.05501771 101.24673707 274.60689044 107.5769043 280.84790039 C109.8034668 283.11352539 109.8034668 283.11352539 109.8034668 285.11352539 C110.66198242 285.49637695 110.66198242 285.49637695 111.5378418 285.88696289 C114.04650683 287.24510224 115.91013529 288.85748969 118.0534668 290.73852539 C131.49750842 301.61238258 149.08251403 308.07983632 166.35961914 308.31884766 C167.64049408 308.33879288 168.92136902 308.3587381 170.24105835 308.37928772 C171.62383913 308.39626685 173.00662115 308.41314585 174.3894043 308.42993164 C175.81573047 308.45052594 177.24205089 308.47152303 178.66836548 308.49290466 C182.4066702 308.54786983 186.14502764 308.59739082 189.88342285 308.64575195 C193.70447433 308.69615463 197.52545005 308.75174234 201.34643555 308.80688477 C208.83204832 308.91415333 216.31772446 309.01566661 223.8034668 309.11352539 C223.66150592 311.20138587 223.51424996 313.28888679 223.36474609 315.3762207 C223.28330856 316.53873352 223.20187103 317.70124634 223.1179657 318.89898682 C221.78616936 332.51146908 213.00722555 344.53736006 202.8034668 353.11352539 C189.43906172 362.53433553 176.97167824 363.55976062 161.18017578 363.50170898 C159.31302586 363.50578032 157.44587835 363.51112535 155.57873535 363.51763916 C150.53542698 363.53125072 145.49230387 363.52603991 140.44899249 363.5165019 C135.15658768 363.5088744 129.86419808 363.51595937 124.5717926 363.5206604 C115.68748138 363.52610849 106.80324514 363.5189507 97.91894531 363.50463867 C87.66407753 363.48830898 77.40938868 363.49360684 67.15452522 363.51011789 C58.33042546 363.52375373 49.5063794 363.52564231 40.68227249 363.51780188 C35.42047543 363.51313755 30.15876234 363.51246642 24.89697075 363.52241135 C19.9498931 363.53110948 15.0030451 363.52500722 10.05599213 363.50772858 C8.24606011 363.50377913 6.43610859 363.50487119 4.62618446 363.51151657 C-13.14418224 363.57072253 -26.6624437 360.09985162 -39.9074707 347.52758789 C-48.17763348 338.80581213 -54.30443315 327.59393896 -54.33075428 315.32884216 C-54.33521212 314.36337778 -54.33966997 313.3979134 -54.3442629 312.40319252 C-54.34407854 311.34523664 -54.34389417 310.28728077 -54.34370422 309.19726562 C-54.34738091 308.07117071 -54.3510576 306.9450758 -54.3548457 305.7848568 C-54.36589176 301.997273 -54.36972799 298.20971664 -54.37353516 294.42211914 C-54.37926716 291.71196762 -54.38643315 289.00182021 -54.39344788 286.29167175 C-54.41320102 278.14786692 -54.42327787 270.00406087 -54.43217567 261.86023808 C-54.43656119 258.02244549 -54.44192739 254.18465429 -54.44716454 250.34686279 C-54.46417706 237.58384487 -54.47866972 224.82082781 -54.48591328 212.05780029 C-54.48782309 208.74645995 -54.48974343 205.43511961 -54.49169922 202.1237793 C-54.49218296 201.30078874 -54.4926667 200.47779818 -54.4931651 199.62986851 C-54.50145974 186.30744223 -54.52678696 172.98510591 -54.5592799 159.66271889 C-54.59238881 145.97582232 -54.61036557 132.28897139 -54.61355752 118.60203457 C-54.61571927 110.92106486 -54.62441851 103.24022625 -54.65001869 95.55929565 C-54.67177829 89.01563913 -54.67975045 82.47214556 -54.67005191 75.92845696 C-54.66552198 72.59315085 -54.66951971 69.25845181 -54.68681335 65.9231472 C-54.70455827 62.29703566 -54.6974121 58.6717672 -54.6842804 55.0456543 C-54.69524964 54.0055442 -54.70621889 52.96543409 -54.71752053 51.8938055 C-54.59078641 37.32641573 -48.26113146 24.76763682 -38.4543457 14.21508789 C-27.63975539 4.14891213 -14.47501759 -0.06044379 0 0 Z " fill="#CAD4E0" transform="translate(86.196533203125,116.886474609375)"/>
<path d="M0 0 C1.89007278 -0.01029488 1.89007278 -0.01029488 3.81832886 -0.02079773 C7.24200309 -0.0385856 10.66541903 -0.0375883 14.08912539 -0.03185534 C16.96160405 -0.02874265 19.83403456 -0.03487882 22.70650631 -0.04089409 C29.48976323 -0.05489035 36.27289407 -0.05341894 43.05615234 -0.04199219 C50.02326502 -0.03051412 56.98999259 -0.04459234 63.95705456 -0.07138866 C69.96848181 -0.09363245 75.97978895 -0.10016367 81.99125439 -0.09431225 C85.56861391 -0.0909623 89.14572669 -0.09322553 92.72305107 -0.11056328 C96.71665248 -0.12907795 100.70951716 -0.11475673 104.703125 -0.09765625 C105.86764694 -0.10732422 107.03216888 -0.11699219 108.23197937 -0.12695312 C132.62285474 0.09054016 147.43320639 16.77157252 163.55297852 32.80249023 C164.18599192 33.43142811 164.81900532 34.06036598 165.47120094 34.70836258 C168.81494026 38.03141086 172.15551411 41.357605 175.49365234 44.6862793 C178.91436853 48.09590181 182.34661821 51.4936678 185.78152752 54.88898277 C188.44873204 57.52990622 191.10688224 60.17980771 193.76276588 62.83211136 C195.02351017 64.08802798 196.28759068 65.34060588 197.55524254 66.58955002 C208.76937022 77.6482425 220.47051712 90.62619625 221.05048084 107.25169373 C221.05989146 108.84860075 221.06378787 110.44554576 221.06343079 112.04248047 C221.06710747 112.92356224 221.07078416 113.80464401 221.07457227 114.71242523 C221.08560311 117.6708382 221.08945198 120.62921603 221.09326172 123.58764648 C221.09952694 125.70667126 221.1061738 127.82569493 221.11317444 129.94471741 C221.13421445 136.9103214 221.14457842 143.87592561 221.15454102 150.84155273 C221.15858893 153.24096691 221.16270586 155.64038098 221.1668911 158.03979492 C221.18594452 169.31546377 221.20017389 180.59112608 221.20850307 191.86680794 C221.2182692 204.87252131 221.24457194 217.87806421 221.28500396 230.88371754 C221.3151962 240.94165343 221.329975 250.99954055 221.33328408 261.05752087 C221.33563147 267.06177013 221.34455141 273.06583729 221.36974525 279.07003784 C221.39308446 284.72372067 221.39723556 290.37710227 221.38698387 296.03082085 C221.38648979 298.09954266 221.3927724 300.16827959 221.40653992 302.23695564 C221.52269255 320.73326958 218.26874279 335.23585268 205.31469727 349.23217773 C198.4145257 355.48054156 190.00067149 360.25715074 180.91625977 362.40405273 C180.20716744 362.57590466 179.49807512 362.74775658 178.76749516 362.92481613 C175.26507315 363.5135044 171.83618138 363.54884597 168.29649353 363.54449463 C167.15734909 363.54895131 167.15734909 363.54895131 165.99519163 363.55349803 C163.45446548 363.56215849 160.9137866 363.56369105 158.37304688 363.56518555 C156.54943746 363.56981571 154.72582901 363.57484064 152.90222168 363.58023071 C147.94939101 363.59334025 142.99657389 363.59979721 138.04372859 363.60424137 C134.94618406 363.60717529 131.84864321 363.61128077 128.75110054 363.61574554 C119.05054426 363.62941856 109.34999642 363.63908538 99.64943117 363.64294744 C88.4690578 363.64742356 77.28880698 363.66495162 66.10847086 363.69394803 C57.45602226 363.71560544 48.80360804 363.72565393 40.15113264 363.72698855 C34.98865104 363.72803395 29.82628466 363.73388489 24.66383171 363.75180817 C19.80221189 363.76835842 14.94079302 363.77041075 10.07915497 363.76166916 C8.3023099 363.76090241 6.52545371 363.76519325 4.74863625 363.77512741 C-13.53612295 363.87129785 -28.07668378 360.82145386 -41.79467773 347.82202148 C-53.33033554 335.63674473 -57.40582581 321.63286815 -57.34443665 305.19023132 C-57.34826219 304.0925327 -57.35208774 302.99483409 -57.35602921 301.86387187 C-57.36631053 298.20233007 -57.36237627 294.54094651 -57.35839844 290.87939453 C-57.36274762 288.24731938 -57.36786739 285.61525565 -57.37388611 282.98318481 C-57.38660654 276.58551448 -57.38843009 270.18788617 -57.38608585 263.79020532 C-57.3842994 258.58695213 -57.38605931 253.38371165 -57.39031029 248.18045998 C-57.39090548 247.43857189 -57.39150067 246.6966838 -57.39211389 245.93231425 C-57.3933257 244.42492383 -57.39453984 242.91753341 -57.39575627 241.410143 C-57.40662176 227.28749957 -57.40447412 213.16488005 -57.39837142 199.04223529 C-57.39320421 186.14046402 -57.40445429 173.23876829 -57.42346964 160.33701196 C-57.44287203 147.07031636 -57.45109977 133.80365646 -57.44734639 120.53694659 C-57.44543785 113.09641554 -57.44788788 105.65594875 -57.46206093 98.21542931 C-57.47400642 91.88051098 -57.47534433 85.54569649 -57.46327076 79.21077665 C-57.45740392 75.98289993 -57.45786559 72.75525085 -57.46827316 69.52737999 C-57.47877045 66.01768787 -57.47061547 62.50849953 -57.45796204 58.99882507 C-57.46533632 57.99325316 -57.47271061 56.98768124 -57.48030835 55.95163745 C-57.36637983 40.84806509 -52.36095471 26.48998934 -41.89624023 15.46655273 C-29.45927295 3.91429448 -16.70001921 -0.0644446 0 0 Z M-28.33374023 33.71655273 C-34.23856952 41.20135227 -35.67432693 48.2417475 -35.5916748 57.62460327 C-35.59791477 58.72300746 -35.60415473 59.82141164 -35.61058378 60.9531008 C-35.62648107 64.61714851 -35.61392156 68.28052796 -35.60131836 71.94458008 C-35.60674099 74.57829211 -35.6137203 77.21195881 -35.62255859 79.84565735 C-35.64030722 86.24705245 -35.63651991 92.64825951 -35.62490803 99.04966186 C-35.61585794 104.25531822 -35.61465651 109.46092204 -35.6190033 114.66658401 C-35.61961623 115.40876083 -35.62022916 116.15093764 -35.62086067 116.91560466 C-35.62213963 118.42356082 -35.62343649 119.93151697 -35.62475103 121.43947311 C-35.63614653 135.56688798 -35.62306017 149.69419888 -35.60154957 163.8215967 C-35.58368689 175.92758465 -35.5867778 188.03341912 -35.60522461 200.1394043 C-35.62666234 214.214711 -35.63504022 228.28992662 -35.62277555 242.36524737 C-35.62150143 243.86812821 -35.62024395 245.37100906 -35.6190033 246.87388992 C-35.61838619 247.61323286 -35.61776909 248.3525758 -35.61713329 249.11432307 C-35.61368853 254.30903981 -35.61948997 259.50369848 -35.62892151 264.69840622 C-35.64017553 271.03595438 -35.63703069 277.37330453 -35.61579853 283.7108302 C-35.60533231 286.94065955 -35.60326636 290.17009388 -35.61439514 293.39993095 C-35.6253723 296.91012441 -35.61155917 300.4193995 -35.5916748 303.92953491 C-35.60059769 304.93801967 -35.60952058 305.94650443 -35.61871386 306.98554933 C-35.5092775 316.98795069 -32.7645267 326.09576881 -25.54353046 333.23313332 C-15.59732424 342.0112852 -5.31143147 342.266707 7.20996094 342.14868164 C9.02962575 342.15354652 10.8492852 342.16099391 12.66893005 342.17080688 C17.57804779 342.18950536 22.48635969 342.17087877 27.39541411 342.14414263 C32.54814015 342.12139224 37.70083003 342.12973771 42.85359192 342.13363647 C51.50083473 342.13539815 60.14776268 342.11332648 68.79492188 342.07641602 C78.777809 342.03404674 88.7602359 342.02707196 98.74319476 342.03953993 C108.37011587 342.05094533 117.99687572 342.03961726 127.62377357 342.01719284 C131.71088978 342.00792887 135.79790692 342.0061409 139.88503075 342.01036453 C144.69925869 342.01414353 149.51302095 341.99782232 154.32714272 341.96624374 C156.08910317 341.95779072 157.85111102 341.95603491 159.61308289 341.96162415 C172.30281106 342.09660076 172.30281106 342.09660076 183.91625977 337.40405273 C184.72579102 336.93483398 185.53532227 336.46561523 186.36938477 335.98217773 C193.59514481 330.64139857 197.36022132 323.9975506 199.91625977 315.40405273 C200.17813372 312.63392796 200.3112582 310.10202522 200.27702332 307.34277344 C200.27958659 306.57231375 200.28214986 305.80185406 200.28479081 305.0080471 C200.28969859 302.44842397 200.27328616 299.88940199 200.25683594 297.32983398 C200.25598901 295.48631301 200.25646608 293.64279102 200.25816345 291.79927063 C200.25902227 286.81014477 200.24141475 281.82123639 200.22044158 276.83216095 C200.20165598 271.61248382 200.19992285 266.39280142 200.19636536 261.1730957 C200.18705043 251.29580089 200.16244409 241.418606 200.13231689 231.54135513 C200.0987557 220.29351378 200.08228254 209.0456676 200.06723058 197.79778862 C200.03589408 174.66648799 199.98314429 151.53527597 199.91625977 128.40405273 C198.8099118 128.39525337 198.8099118 128.39525337 197.68121338 128.38627625 C190.67985733 128.32801575 183.6788118 128.25575309 176.67776871 128.16833782 C173.07971754 128.12389084 169.48177294 128.084581 165.88354492 128.05761719 C162.40143403 128.03132436 158.91973909 127.99074661 155.4378891 127.94086647 C153.48410038 127.9164247 151.53014987 127.90622081 149.57623291 127.89640808 C133.23398735 127.63133782 120.18413446 123.22076435 108.20532227 111.88842773 C96.05930637 98.70606236 93.82486149 84.77884113 93.59985352 67.59545898 C93.57924991 66.26024279 93.55825263 64.92503261 93.53688049 63.58982849 C93.48201114 60.09649572 93.43244883 56.60310756 93.3840332 53.10968018 C93.33355953 49.536531 93.27800928 45.96346102 93.22290039 42.39038086 C93.11574946 35.39500696 93.01421115 28.39956133 92.91625977 21.40405273 C80.05062115 21.33440488 67.18502773 21.28116637 54.31923866 21.24861622 C48.34451237 21.23299026 42.3699155 21.211808 36.39526367 21.17773438 C30.62457388 21.14503158 24.85400822 21.12717664 19.08323288 21.11942101 C16.8865196 21.11389709 14.68981276 21.10311038 12.49315262 21.08686256 C9.4056885 21.06494331 6.31873113 21.06209188 3.23120117 21.06347656 C2.33208008 21.05269073 1.43295898 21.04190491 0.5065918 21.03079224 C-11.44096197 21.08840895 -20.22945508 24.98418548 -28.33374023 33.71655273 Z " fill="#0F172A" transform="translate(259.083740234375,31.595947265625)"/>
<path d="M0 0 C1.37634865 -0.00021904 1.37634865 -0.00021904 2.78050232 -0.0004425 C5.8051085 0.00025264 8.82965266 0.00802642 11.85424805 0.01586914 C13.95460476 0.01773473 16.05496191 0.01915797 18.15531921 0.02015686 C23.6774313 0.0239709 29.19951698 0.03379171 34.72161865 0.04486084 C40.35892378 0.05509887 45.99623318 0.05965961 51.63354492 0.06469727 C62.690199 0.07541496 73.74682657 0.09300277 84.8034668 0.11352539 C84.8034668 7.37352539 84.8034668 14.63352539 84.8034668 22.11352539 C80.61071045 22.11968872 80.61071045 22.11968872 76.33325195 22.12597656 C67.07313819 22.14321383 57.81329897 22.18778205 48.55335426 22.24561596 C42.94184707 22.27983101 37.33061056 22.30498746 31.71899414 22.30908203 C26.29817848 22.31337666 20.87797287 22.3419365 15.45734787 22.38695717 C13.39466283 22.39989488 11.33190465 22.40425314 9.26918411 22.39967918 C-5.77134485 22.063872 -5.77134485 22.063872 -19.1965332 28.11352539 C-19.76729584 28.48160812 -20.33805847 28.84969086 -20.92611694 29.22892761 C-27.01308072 33.59192252 -30.30076305 41.07358686 -32.1965332 48.11352539 C-32.48865616 51.70028728 -32.47067113 55.27582642 -32.45722961 58.87287903 C-32.46105516 59.95788041 -32.46488071 61.0428818 -32.46882218 62.16076201 C-32.47914257 65.79716533 -32.47516177 69.43341048 -32.47119141 73.06982422 C-32.47553843 75.67676439 -32.48072155 78.28370327 -32.48667908 80.89064026 C-32.49942222 87.23758292 -32.5012202 93.58448327 -32.49887881 99.93143658 C-32.49709484 105.09188116 -32.49884701 110.25231291 -32.50310326 115.41275597 C-32.50369845 116.14759061 -32.50429363 116.88242525 -32.50490686 117.63952762 C-32.50611863 119.13242883 -32.50733277 120.62533005 -32.50854924 122.11823126 C-32.51942358 136.11630151 -32.51726296 150.11434766 -32.51116439 164.11241927 C-32.50599698 176.90971052 -32.5172462 189.70692562 -32.53626261 202.50420181 C-32.5556499 215.65213671 -32.56389534 228.80003559 -32.56013936 241.94798487 C-32.55822845 249.32642573 -32.56070395 256.70480179 -32.5748539 264.08323097 C-32.5880282 271.02304989 -32.58549551 277.96271408 -32.57244301 284.90253258 C-32.57007586 287.44821092 -32.57281684 289.99389996 -32.58106613 292.53956604 C-32.59152325 296.01762787 -32.58344051 299.49517733 -32.570755 302.97322083 C-32.57812929 303.97790478 -32.58550357 304.98258874 -32.59310132 306.01771766 C-32.51686691 315.96999614 -29.80163618 324.52732972 -23.1965332 332.11352539 C-15.63777246 338.66195672 -8.66494666 341.35511264 1.397995 341.38095093 C2.1305486 341.38548204 2.86310221 341.39001315 3.61785442 341.39468157 C6.05568578 341.40727211 8.4932922 341.40570868 10.93115234 341.40405273 C12.686094 341.41004143 14.44103303 341.41684776 16.19596863 341.42440796 C20.95242065 341.44204288 25.70880065 341.44676235 30.4652822 341.44803953 C33.44123119 341.44946339 36.417162 341.4537375 39.39310646 341.45903397 C49.78763613 341.47752769 60.18211458 341.48570562 70.57666016 341.48413086 C80.24522255 341.48293044 89.91356135 341.50401494 99.58206719 341.53561819 C107.8991105 341.56182899 116.21608102 341.5724961 124.53316528 341.57122004 C129.49332248 341.57071171 134.453281 341.57632287 139.41339684 341.59757614 C144.08304482 341.61703899 148.75230629 341.61702831 153.42196846 341.60254288 C155.127863 341.60046345 156.83378224 341.60510353 158.5396347 341.61726379 C171.97486194 341.70677084 183.62875472 340.52992494 193.6706543 330.74633789 C198.95572123 324.2222809 200.63409487 317.29912885 201.8034668 309.11352539 C209.0634668 309.11352539 216.3234668 309.11352539 223.8034668 309.11352539 C223.2465091 326.00790896 217.55595825 339.25878527 205.3503418 350.97290039 C191.82943313 362.3370997 178.03720997 363.56367766 161.18017578 363.50170898 C159.31302586 363.50578032 157.44587835 363.51112535 155.57873535 363.51763916 C150.53542698 363.53125072 145.49230387 363.52603991 140.44899249 363.5165019 C135.15658768 363.5088744 129.86419808 363.51595937 124.5717926 363.5206604 C115.68748138 363.52610849 106.80324514 363.5189507 97.91894531 363.50463867 C87.66407753 363.48830898 77.40938868 363.49360684 67.15452522 363.51011789 C58.33042546 363.52375373 49.5063794 363.52564231 40.68227249 363.51780188 C35.42047543 363.51313755 30.15876234 363.51246642 24.89697075 363.52241135 C19.9498931 363.53110948 15.0030451 363.52500722 10.05599213 363.50772858 C8.24606011 363.50377913 6.43610859 363.50487119 4.62618446 363.51151657 C-13.14418224 363.57072253 -26.6624437 360.09985162 -39.9074707 347.52758789 C-48.17763348 338.80581213 -54.30443315 327.59393896 -54.33075428 315.32884216 C-54.33521212 314.36337778 -54.33966997 313.3979134 -54.3442629 312.40319252 C-54.34407854 311.34523664 -54.34389417 310.28728077 -54.34370422 309.19726562 C-54.34738091 308.07117071 -54.3510576 306.9450758 -54.3548457 305.7848568 C-54.36589176 301.997273 -54.36972799 298.20971664 -54.37353516 294.42211914 C-54.37926716 291.71196762 -54.38643315 289.00182021 -54.39344788 286.29167175 C-54.41320102 278.14786692 -54.42327787 270.00406087 -54.43217567 261.86023808 C-54.43656119 258.02244549 -54.44192739 254.18465429 -54.44716454 250.34686279 C-54.46417706 237.58384487 -54.47866972 224.82082781 -54.48591328 212.05780029 C-54.48782309 208.74645995 -54.48974343 205.43511961 -54.49169922 202.1237793 C-54.49218296 201.30078874 -54.4926667 200.47779818 -54.4931651 199.62986851 C-54.50145974 186.30744223 -54.52678696 172.98510591 -54.5592799 159.66271889 C-54.59238881 145.97582232 -54.61036557 132.28897139 -54.61355752 118.60203457 C-54.61571927 110.92106486 -54.62441851 103.24022625 -54.65001869 95.55929565 C-54.67177829 89.01563913 -54.67975045 82.47214556 -54.67005191 75.92845696 C-54.66552198 72.59315085 -54.66951971 69.25845181 -54.68681335 65.9231472 C-54.70455827 62.29703566 -54.6974121 58.6717672 -54.6842804 55.0456543 C-54.69524964 54.0055442 -54.70621889 52.96543409 -54.71752053 51.8938055 C-54.59078641 37.32641573 -48.26113146 24.76763682 -38.4543457 14.21508789 C-27.63975539 4.14891213 -14.47501759 -0.06044379 0 0 Z " fill="#0F172A" transform="translate(86.196533203125,116.886474609375)"/>
<path d="M0 0 C13.50822064 3.35310441 22.27535388 13.95044298 31.79296875 23.45703125 C33.11080555 24.76842693 34.4287861 26.07967817 35.74690247 27.39079285 C38.49619466 30.1281712 41.24138499 32.86958871 43.98413086 35.61352539 C47.48062347 39.11022146 50.99069385 42.59293466 54.50443554 46.07228565 C57.22668657 48.77219254 59.93969061 51.48124982 62.65026283 54.19287682 C63.93989337 55.48016484 65.23272742 56.76425256 66.52895164 58.04490089 C83.31928481 74.65215782 83.31928481 74.65215782 85 85 C77.59323943 85.0698268 70.18655104 85.12297582 62.77952671 85.15543652 C59.33930816 85.17102416 55.89931652 85.19213408 52.45922852 85.22631836 C48.49498303 85.26546007 44.53082613 85.27976629 40.56640625 85.29296875 C39.34417862 85.30845261 38.12195099 85.32393646 36.86268616 85.33988953 C25.4499853 85.34211786 17.29596407 83.06161481 9 75 C0.95905801 65.39992111 -0.45081806 55.88928448 -0.29296875 43.65234375 C-0.28872391 42.39990372 -0.28447906 41.14746368 -0.28010559 39.85707092 C-0.26623684 36.5575067 -0.2393727 33.25839767 -0.20599365 29.95898438 C-0.17508207 26.58013424 -0.16155563 23.20121697 -0.14648438 19.82226562 C-0.11352897 13.2146684 -0.06341489 6.60737136 0 0 Z " fill="#C7D1DD" transform="translate(373,54)"/>
</svg>
